<svg width="134" height="127" viewBox="0 0 134 127" fill="none" xmlns="http://www.w3.org/2000/svg">
<rect x="0.485352" width="133.353" height="126.686" rx="32.5048" fill="#FFCD39"/>
<g clip-path="url(#clip0_28_116)">
<path d="M69.1064 86.6796H39.9354C38.9038 86.6796 37.9145 86.2698 37.1851 85.5404C36.4557 84.811 36.0459 83.8217 36.0459 82.7901V43.8954C36.0459 42.8639 36.4557 41.8746 37.1851 41.1452C37.9145 40.4158 38.9038 40.006 39.9354 40.006H94.3879C95.4195 40.006 96.4088 40.4158 97.1382 41.1452C97.8676 41.8746 98.2774 42.8639 98.2774 43.8954V64.0623C95.6866 60.7626 91.9179 58.5951 87.7629 58.0151C83.6078 57.4351 79.3897 58.4877 75.9942 60.9518C72.5988 63.4159 70.2903 67.0999 69.5535 71.23C68.8168 75.3601 69.709 79.6151 72.0429 83.1013L70.2343 85.3183L69.1064 86.6796ZM45.7696 51.6744V54.786H78.83V51.6744H45.7696ZM45.7696 62.5649H67.1616V59.4533H45.7696V62.5649ZM45.7696 76.178H65.2169V73.0665H45.7696V76.178Z" fill="black"/>
<path d="M97.9468 74.2138C97.952 72.1633 97.4481 70.1435 96.4803 68.3358C95.5125 66.528 94.1111 64.9887 92.4018 63.856C90.6926 62.7233 88.7288 62.0326 86.6868 61.8459C84.6448 61.6592 82.5884 61.9823 80.702 62.7862C78.8156 63.5902 77.1583 64.8498 75.8788 66.4521C74.5992 68.0544 73.7374 69.9493 73.3706 71.9668C73.0039 73.9842 73.1437 76.0612 73.7775 78.0113C74.4113 79.9615 75.5192 81.7238 77.002 83.1401L73.2292 87.7492L74.9795 94.7697L82.0972 86.0961C84.3502 86.7623 86.7479 86.7623 89.001 86.0961L96.1187 94.7697L97.869 87.7492L94.0962 83.1401C95.3095 81.9909 96.2764 80.607 96.9384 79.0725C97.6003 77.538 97.9434 75.885 97.9468 74.2138ZM77.0603 74.2138C77.0372 72.5282 77.5159 70.8738 78.4355 69.4609C79.3552 68.0481 80.6742 66.9407 82.2249 66.2795C83.7756 65.6184 85.4879 65.4333 87.1441 65.748C88.8003 66.0626 90.3254 66.8626 91.5257 68.0464C92.7259 69.2302 93.547 70.7441 93.8845 72.3958C94.2219 74.0474 94.0606 75.7621 93.4209 77.3218C92.7813 78.8815 91.6922 80.2158 90.2922 81.1549C88.8922 82.0939 87.2446 82.5955 85.5588 82.5956C83.3252 82.6008 81.1802 81.7225 79.5918 80.1523C78.0033 78.582 77.1003 76.4473 77.0798 74.2138H77.0603Z" fill="black"/>
</g>
<defs>
<clipPath id="clip0_28_116">
<rect width="70.0104" height="70.0104" fill="white" transform="translate(32.1562 28.3375)"/>
</clipPath>
</defs>
</svg>
