<svg width="135" height="127" viewBox="0 0 135 127" fill="none" xmlns="http://www.w3.org/2000/svg">
<rect x="0.861816" width="133.353" height="126.686" rx="32.5048" fill="#FFCD39"/>
<path d="M67.5384 78.6577C67.1576 78.6576 66.7833 78.5582 66.4527 78.3691L47.301 67.4232C47.1346 67.3271 46.9458 67.2765 46.7537 67.2766C46.5615 67.2767 46.3728 67.3274 46.2064 67.4236C46.0401 67.5198 45.902 67.6581 45.8061 67.8246C45.7102 67.9911 45.6599 68.18 45.6602 68.3721V78.6577C45.6598 79.0481 45.764 79.4316 45.9619 79.7682C46.1598 80.1048 46.4442 80.3824 46.7855 80.572L66.4759 91.5111C66.801 91.6917 67.1666 91.7864 67.5384 91.7864C67.9102 91.7864 68.2759 91.6917 68.6009 91.5111L88.2913 80.572C88.6326 80.3824 88.917 80.1048 89.1149 79.7682C89.3128 79.4316 89.417 79.0481 89.4167 78.6577V68.3721C89.4169 68.18 89.3666 67.9911 89.2707 67.8246C89.1748 67.6581 89.0367 67.5198 88.8704 67.4236C88.7041 67.3274 88.5153 67.2767 88.3232 67.2766C88.131 67.2765 87.9422 67.3271 87.7758 67.4232L68.6241 78.3691C68.2935 78.5582 67.9193 78.6576 67.5384 78.6577Z" fill="black"/>
<path d="M100.345 54.3862V54.3712C100.31 54.0244 100.192 53.691 100.002 53.399C99.8114 53.1069 99.5541 52.8645 99.2512 52.692L68.6216 35.1894C68.291 35.0004 67.9168 34.901 67.5359 34.901C67.1551 34.901 66.7808 35.0004 66.4502 35.1894L35.8207 52.692C35.4859 52.8834 35.2077 53.1599 35.0142 53.4934C34.8207 53.8269 34.7188 54.2057 34.7188 54.5913C34.7188 54.9769 34.8207 55.3557 35.0142 55.6892C35.2077 56.0227 35.4859 56.2992 35.8207 56.4906L66.4502 73.9932C66.7808 74.1822 67.1551 74.2816 67.5359 74.2816C67.9168 74.2816 68.291 74.1822 68.6216 73.9932L95.5702 58.595C95.6118 58.571 95.6591 58.5583 95.7072 58.5584C95.7553 58.5584 95.8025 58.5712 95.8441 58.5953C95.8857 58.6194 95.9202 58.6541 95.9441 58.6958C95.9681 58.7376 95.9806 58.7849 95.9804 58.833V78.5958C95.9804 79.7732 96.8856 80.7837 98.0629 80.8425C98.3587 80.8567 98.6544 80.8108 98.9319 80.7074C99.2094 80.604 99.4631 80.4454 99.6775 80.2411C99.8919 80.0368 100.063 79.7911 100.179 79.5188C100.296 79.2466 100.356 78.9535 100.356 78.6574V54.5913C100.356 54.5228 100.352 54.4543 100.345 54.3862Z" fill="black"/>
</svg>
