<svg width="61" height="66" viewBox="0 0 61 66" fill="none" xmlns="http://www.w3.org/2000/svg">
<rect x="0.171875" y="0.0626221" width="60.6562" height="65.8747" rx="9.34855" fill="#FFFAEB"/>
<path d="M14.7016 48.1461C13.6603 48.1461 12.7692 47.7756 12.0283 47.0347C11.2874 46.2938 10.9163 45.4021 10.915 44.3596V21.6404C10.915 20.5991 11.2861 19.708 12.0283 18.9671C12.7704 18.2262 13.6615 17.8551 14.7016 17.8539H44.9938C46.0351 17.8539 46.9268 18.225 47.669 18.9671C48.4111 19.7093 48.7816 20.6004 48.7803 21.6404V44.3596C48.7803 45.4009 48.4098 46.2926 47.669 47.0347C46.9281 47.7769 46.0363 48.1474 44.9938 48.1461H14.7016ZM29.8477 34.8932L44.9938 25.4269V21.6404L29.8477 31.1067L14.7016 21.6404V25.4269L29.8477 34.8932Z" fill="#E0A700"/>
</svg>
