<svg width="134" height="128" viewBox="0 0 134 128" fill="none" xmlns="http://www.w3.org/2000/svg">
<rect x="0.485352" y="0.685547" width="133.353" height="126.686" rx="32.5048" fill="#FFCD39"/>
<path d="M84.6638 72.7796H78.8296V78.6138H84.6638M84.6638 61.1112H78.8296V66.9454H84.6638M90.498 84.448H67.1612V78.6138H72.9954V72.7796H67.1612V66.9454H72.9954V61.1112H67.1612V55.277H90.498M61.327 49.4428H55.4928V43.6086H61.327M61.327 61.1112H55.4928V55.277H61.327M61.327 72.7796H55.4928V66.9454H61.327M61.327 84.448H55.4928V78.6138H61.327M49.6586 49.4428H43.8244V43.6086H49.6586M49.6586 61.1112H43.8244V55.277H49.6586M49.6586 72.7796H43.8244V66.9454H49.6586M49.6586 84.448H43.8244V78.6138H49.6586M67.1612 49.4428V37.7744H37.9902V90.2822H96.3322V49.4428H67.1612Z" fill="black"/>
</svg>
