<svg width="61" height="66" viewBox="0 0 61 66" fill="none" xmlns="http://www.w3.org/2000/svg">
<rect x="0.171875" y="0.0626221" width="60.6562" height="65.8747" rx="9.34855" fill="#FFFAEB"/>
<path d="M21.896 14.0674H37.7994C43.8578 14.0674 48.7803 18.9899 48.7803 25.0483V40.9517C48.7803 43.864 47.6234 46.6571 45.5641 48.7164C43.5047 50.7757 40.7117 51.9326 37.7994 51.9326H21.896C15.8375 51.9326 10.915 47.0102 10.915 40.9517V25.0483C10.915 22.136 12.072 19.3429 14.1313 17.2836C16.1906 15.2243 18.9836 14.0674 21.896 14.0674ZM21.5173 17.8539C19.7097 17.8539 17.9761 18.572 16.6979 19.8502C15.4197 21.1284 14.7016 22.862 14.7016 24.6697V41.3304C14.7016 45.098 17.7497 48.1461 21.5173 48.1461H38.178C39.9857 48.1461 41.7193 47.428 42.9975 46.1498C44.2757 44.8716 44.9938 43.138 44.9938 41.3304V24.6697C44.9938 20.9021 41.9456 17.8539 38.178 17.8539H21.5173ZM39.7873 20.6938C40.415 20.6938 41.0169 20.9431 41.4607 21.387C41.9045 21.8308 42.1539 22.4327 42.1539 23.0604C42.1539 23.688 41.9045 24.29 41.4607 24.7338C41.0169 25.1776 40.415 25.427 39.7873 25.427C39.1596 25.427 38.5577 25.1776 38.1139 24.7338C37.6701 24.29 37.4207 23.688 37.4207 23.0604C37.4207 22.4327 37.6701 21.8308 38.1139 21.387C38.5577 20.9431 39.1596 20.6938 39.7873 20.6938ZM29.8477 23.5337C32.3583 23.5337 34.7661 24.531 36.5414 26.3063C38.3166 28.0816 39.314 30.4894 39.314 33C39.314 35.5106 38.3166 37.9184 36.5414 39.6937C34.7661 41.469 32.3583 42.4663 29.8477 42.4663C27.337 42.4663 24.9293 41.469 23.154 39.6937C21.3787 37.9184 20.3814 35.5106 20.3814 33C20.3814 30.4894 21.3787 28.0816 23.154 26.3063C24.9293 24.531 27.337 23.5337 29.8477 23.5337ZM29.8477 27.3202C28.3413 27.3202 26.8966 27.9186 25.8314 28.9838C24.7663 30.049 24.1679 31.4936 24.1679 33C24.1679 34.5064 24.7663 35.9511 25.8314 37.0162C26.8966 38.0814 28.3413 38.6798 29.8477 38.6798C31.354 38.6798 32.7987 38.0814 33.8639 37.0162C34.9291 35.9511 35.5275 34.5064 35.5275 33C35.5275 31.4936 34.9291 30.049 33.8639 28.9838C32.7987 27.9186 31.354 27.3202 29.8477 27.3202Z" fill="#E0A700"/>
</svg>
