<svg width="135" height="128" viewBox="0 0 135 128" fill="none" xmlns="http://www.w3.org/2000/svg">
<rect x="0.861816" y="0.685547" width="133.353" height="126.686" rx="32.5048" fill="#FFCD39"/>
<path d="M58.7872 52.3599C59.6137 52.3599 60.307 52.0799 60.8671 51.5198C61.4271 50.9597 61.7062 50.2674 61.7043 49.4428V46.5257C61.7043 45.6992 61.4242 45.0069 60.8641 44.4487C60.3041 43.8906 59.6117 43.6105 58.7872 43.6086C57.9626 43.6067 57.2703 43.8867 56.7102 44.4487C56.1501 45.0108 55.8701 45.7031 55.8701 46.5257V49.4428C55.8701 50.2693 56.1501 50.9626 56.7102 51.5227C57.2703 52.0828 57.9626 52.3618 58.7872 52.3599ZM58.7872 78.6138C59.6137 78.6138 60.307 78.3338 60.8671 77.7737C61.4271 77.2136 61.7062 76.5213 61.7043 75.6967V66.9454C61.7043 66.1189 61.4242 65.4266 60.8641 64.8684C60.3041 64.3103 59.6117 64.0302 58.7872 64.0283C57.9626 64.0264 57.2703 64.3064 56.7102 64.8684C56.1501 65.4305 55.8701 66.1228 55.8701 66.9454V75.6967C55.8701 76.5232 56.1501 77.2165 56.7102 77.7766C57.2703 78.3367 57.9626 78.6157 58.7872 78.6138ZM50.0359 93.1993C48.4315 93.1993 47.0585 92.6285 45.9169 91.487C44.7754 90.3454 44.2036 88.9715 44.2017 87.3651V61.1112H90.8753V87.3651C90.8753 88.9695 90.3045 90.3435 89.1629 91.487C88.0214 92.6305 86.6474 93.2013 85.0411 93.1993H50.0359ZM44.2017 55.277V40.6915C44.2017 39.0871 44.7734 37.7141 45.9169 36.5726C47.0604 35.431 48.4334 34.8592 50.0359 34.8573H85.0411C86.6455 34.8573 88.0194 35.4291 89.1629 36.5726C90.3064 37.7161 90.8772 39.089 90.8753 40.6915V55.277H44.2017Z" fill="black"/>
</svg>
