<svg width="61" height="66" viewBox="0 0 61 66" fill="none" xmlns="http://www.w3.org/2000/svg">
<rect x="0.171875" y="0.0626221" width="60.6562" height="65.8747" rx="9.34855" fill="#FFFAEB"/>
<g clip-path="url(#clip0_56_528)">
<path opacity="0.2" d="M38.3676 17.3806V48.6195H31.2679V38.6798H22.7482V48.6195H15.6484V17.3806H38.3676Z" fill="#E0A700"/>
<path d="M51.1472 47.1995H48.3073V27.3203C48.6839 27.3203 49.0451 27.1707 49.3114 26.9044C49.5777 26.6381 49.7273 26.2769 49.7273 25.9003C49.7273 25.5237 49.5777 25.1626 49.3114 24.8963C49.0451 24.63 48.6839 24.4804 48.3073 24.4804H39.7876V18.8006C40.1642 18.8006 40.5254 18.651 40.7917 18.3847C41.058 18.1184 41.2076 17.7572 41.2076 17.3806C41.2076 17.004 41.058 16.6429 40.7917 16.3766C40.5254 16.1103 40.1642 15.9607 39.7876 15.9607H14.2286C13.852 15.9607 13.4908 16.1103 13.2245 16.3766C12.9582 16.6429 12.8086 17.004 12.8086 17.3806C12.8086 17.7572 12.9582 18.1184 13.2245 18.3847C13.4908 18.651 13.852 18.8006 14.2286 18.8006V47.1995H11.3887C11.0121 47.1995 10.6509 47.3491 10.3846 47.6154C10.1184 47.8817 9.96875 48.2429 9.96875 48.6195C9.96875 48.9961 10.1184 49.3572 10.3846 49.6235C10.6509 49.8898 11.0121 50.0394 11.3887 50.0394H51.1472C51.5238 50.0394 51.885 49.8898 52.1513 49.6235C52.4176 49.3572 52.5672 48.9961 52.5672 48.6195C52.5672 48.2429 52.4176 47.8817 52.1513 47.6154C51.885 47.3491 51.5238 47.1995 51.1472 47.1995ZM45.4674 27.3203V47.1995H39.7876V27.3203H45.4674ZM17.0685 18.8006H36.9477V47.1995H32.6879V38.6798C32.6879 38.3033 32.5383 37.9421 32.272 37.6758C32.0057 37.4095 31.6446 37.2599 31.268 37.2599H22.7483C22.3717 37.2599 22.0105 37.4095 21.7442 37.6758C21.4779 37.9421 21.3283 38.3033 21.3283 38.6798V47.1995H17.0685V18.8006ZM29.848 47.1995H24.1682V40.0998H29.848V47.1995ZM19.9084 24.4804C19.9084 24.1038 20.058 23.7426 20.3243 23.4763C20.5906 23.21 20.9517 23.0604 21.3283 23.0604H24.1682C24.5448 23.0604 24.906 23.21 25.1723 23.4763C25.4386 23.7426 25.5882 24.1038 25.5882 24.4804C25.5882 24.857 25.4386 25.2181 25.1723 25.4844C24.906 25.7507 24.5448 25.9003 24.1682 25.9003H21.3283C20.9517 25.9003 20.5906 25.7507 20.3243 25.4844C20.058 25.2181 19.9084 24.857 19.9084 24.4804ZM28.4281 24.4804C28.4281 24.1038 28.5777 23.7426 28.844 23.4763C29.1102 23.21 29.4714 23.0604 29.848 23.0604H32.6879C33.0645 23.0604 33.4257 23.21 33.692 23.4763C33.9583 23.7426 34.1079 24.1038 34.1079 24.4804C34.1079 24.857 33.9583 25.2181 33.692 25.4844C33.4257 25.7507 33.0645 25.9003 32.6879 25.9003H29.848C29.4714 25.9003 29.1102 25.7507 28.844 25.4844C28.5777 25.2181 28.4281 24.857 28.4281 24.4804ZM19.9084 31.5801C19.9084 31.2035 20.058 30.8424 20.3243 30.5761C20.5906 30.3098 20.9517 30.1602 21.3283 30.1602H24.1682C24.5448 30.1602 24.906 30.3098 25.1723 30.5761C25.4386 30.8424 25.5882 31.2035 25.5882 31.5801C25.5882 31.9567 25.4386 32.3179 25.1723 32.5842C24.906 32.8505 24.5448 33.0001 24.1682 33.0001H21.3283C20.9517 33.0001 20.5906 32.8505 20.3243 32.5842C20.058 32.3179 19.9084 31.9567 19.9084 31.5801ZM28.4281 31.5801C28.4281 31.2035 28.5777 30.8424 28.844 30.5761C29.1102 30.3098 29.4714 30.1602 29.848 30.1602H32.6879C33.0645 30.1602 33.4257 30.3098 33.692 30.5761C33.9583 30.8424 34.1079 31.2035 34.1079 31.5801C34.1079 31.9567 33.9583 32.3179 33.692 32.5842C33.4257 32.8505 33.0645 33.0001 32.6879 33.0001H29.848C29.4714 33.0001 29.1102 32.8505 28.844 32.5842C28.5777 32.3179 28.4281 31.9567 28.4281 31.5801Z" fill="#E0A700"/>
</g>
<defs>
<clipPath id="clip0_56_528">
<rect width="45.4383" height="45.4383" fill="white" transform="translate(7.12891 10.2809)"/>
</clipPath>
</defs>
</svg>
