<svg width="61" height="66" viewBox="0 0 61 66" fill="none" xmlns="http://www.w3.org/2000/svg">
<rect x="0.171875" y="0.0626221" width="60.6562" height="65.8747" rx="9.34855" fill="#FFFAEB"/>
<path d="M19.6622 30.7092C22.3885 36.0671 26.7809 40.4406 32.1388 43.1858L36.304 39.0206C36.8152 38.5095 37.5725 38.3391 38.2351 38.5663C40.3556 39.2668 42.6464 39.6454 44.9941 39.6454C46.0354 39.6454 46.8873 40.4974 46.8873 41.5387V48.1462C46.8873 49.1875 46.0354 50.0394 44.9941 50.0394C27.2163 50.0394 12.8086 35.6317 12.8086 17.854C12.8086 16.8127 13.6606 15.9607 14.7019 15.9607H21.3283C22.3696 15.9607 23.2215 16.8127 23.2215 17.854C23.2215 20.2205 23.6002 22.4925 24.3007 24.6129C24.509 25.2755 24.3575 26.0139 23.8274 26.544L19.6622 30.7092Z" fill="#E0A700"/>
</svg>
