<svg width="342" height="862" viewBox="0 0 342 862" fill="none" xmlns="http://www.w3.org/2000/svg">
<path d="M114.152 562.43C151.577 543.876 194.84 540.949 234.423 554.292C274.006 567.636 306.667 596.157 325.221 633.582C343.775 671.007 346.702 714.269 333.358 753.852C320.014 793.435 291.493 826.096 254.068 844.65C216.644 863.204 173.381 866.131 133.798 852.788C94.215 839.444 61.554 810.923 42.9999 773.498C24.4459 736.073 21.5188 692.811 34.8625 653.228C48.2061 613.645 76.7275 580.984 114.152 562.43ZM144.759 624.165L144.876 682.998L96.461 716.45L152.441 734.513L169.295 790.893L203.786 743.227L262.596 744.615L227.935 697.085L247.44 641.577L191.505 659.859L144.759 624.165ZM-144.047 44.5318L-55.8442 0.825628L199.615 468.867L188.405 506.676C163.266 506.089 138.251 510.372 114.739 519.289L-144.047 44.5318ZM-62.9701 263.553L79.4525 536.761C58.1279 550.075 39.5804 567.389 24.8322 587.748L-9.16994 579.621L-151.155 307.294L-62.9701 263.553Z" fill="#006C2C" fill-opacity="0.06"/>
</svg>
