<svg width="134" height="127" viewBox="0 0 134 127" fill="none" xmlns="http://www.w3.org/2000/svg">
<rect x="0.108398" y="0.249756" width="133.353" height="126.686" rx="32.5048" fill="#FFCD39"/>
<path d="M95.9553 84.0121V52.945C95.9553 50.553 94.4967 48.4235 92.2797 47.5192L68.9429 38.1845C67.5427 37.6302 65.9967 37.6302 64.5965 38.1845L41.2597 47.5192C39.0718 48.4235 37.6133 50.5822 37.6133 52.945V84.0121C37.6133 87.2209 40.2387 89.8463 43.4475 89.8463H52.1988V63.5924H81.3698V89.8463H90.1211C93.3299 89.8463 95.9553 87.2209 95.9553 84.0121ZM63.8672 84.0121H58.033V89.8463H63.8672V84.0121ZM69.7014 75.2608H63.8672V81.095H69.7014V75.2608ZM75.5356 84.0121H69.7014V89.8463H75.5356V84.0121Z" fill="black"/>
</svg>
