<svg width="78" height="79" viewBox="0 0 78 79" fill="none" xmlns="http://www.w3.org/2000/svg">
<g clip-path="url(#clip0_78_134)">
<path d="M2.15222 39.0332C2.1504 45.5867 3.86277 51.9857 7.11882 57.6259L1.84082 76.8968L21.5621 71.7258C27.0168 74.6952 33.1283 76.2511 39.3389 76.2516H39.3552C59.8574 76.2516 76.5467 59.5684 76.5554 39.0625C76.5594 29.126 72.6932 19.7823 65.669 12.7526C58.646 5.72358 49.3056 1.85048 39.3537 1.84595C18.8491 1.84595 2.16098 18.5283 2.15252 39.0332" fill="url(#paint0_linear_78_134)"/>
<path d="M0.823488 39.0211C0.821372 45.8104 2.59512 52.4383 5.96726 58.2805L0.5 78.2421L20.9284 72.8858C26.5571 75.9547 32.8945 77.5728 39.3431 77.5752H39.3597C60.5975 77.5752 77.8863 60.2918 77.8953 39.052C77.899 28.7584 73.8938 19.0788 66.6186 11.7973C59.3425 4.5167 49.6681 0.504233 39.3597 0.5C18.1183 0.5 0.831953 17.7809 0.823488 39.0211ZM12.9894 57.2743L12.2266 56.0635C9.02014 50.9651 7.32772 45.0734 7.33014 39.0235C7.33679 21.3692 21.7045 7.00605 39.3718 7.00605C47.9276 7.00967 55.9683 10.3449 62.016 16.3963C68.0634 22.4482 71.3911 30.4931 71.389 39.0495C71.3811 56.7038 57.0131 71.0688 39.3597 71.0688H39.347C33.5989 71.0658 27.9614 69.5221 23.045 66.605L21.875 65.9112L9.75237 69.0895L12.9894 57.2743Z" fill="url(#paint1_linear_78_134)"/>
<path d="M29.7279 22.9168C29.0065 21.3136 28.2474 21.2812 27.5614 21.2531C26.9997 21.2289 26.3575 21.2307 25.716 21.2307C25.0739 21.2307 24.0305 21.4723 23.1486 22.4352C22.2659 23.399 19.7783 25.7281 19.7783 30.4653C19.7783 35.2024 23.2288 39.7808 23.7098 40.4239C24.1914 41.0657 30.3709 51.0981 40.1578 54.9576C48.2916 58.165 49.9468 57.527 51.7121 57.3662C53.4776 57.206 57.4091 55.0377 58.2112 52.7893C59.0138 50.5412 59.0138 48.6142 58.7732 48.2115C58.5325 47.8103 57.8904 47.5693 56.9275 47.088C55.9646 46.6067 51.2305 44.277 50.348 43.9557C49.4652 43.6346 48.8233 43.4743 48.1812 44.4385C47.5391 45.4011 45.6952 47.5693 45.1332 48.2115C44.5717 48.8551 44.0097 48.9353 43.0471 48.4536C42.0836 47.9705 38.9826 46.955 35.3036 43.6751C32.4412 41.1229 30.5088 37.9711 29.947 37.007C29.3853 36.0444 29.8869 35.5226 30.3697 35.0428C30.8023 34.6114 31.3329 33.9184 31.8148 33.3564C32.2949 32.7941 32.4551 32.3929 32.7762 31.7508C33.0976 31.108 32.9367 30.5457 32.6964 30.0641C32.4551 29.5825 30.584 24.8206 29.7279 22.9168Z" fill="white"/>
</g>
<defs>
<linearGradient id="paint0_linear_78_134" x1="3737.57" y1="7506.93" x2="3737.57" y2="1.84595" gradientUnits="userSpaceOnUse">
<stop stop-color="#1FAF38"/>
<stop offset="1" stop-color="#60D669"/>
</linearGradient>
<linearGradient id="paint1_linear_78_134" x1="3870.27" y1="7774.71" x2="3870.27" y2="0.5" gradientUnits="userSpaceOnUse">
<stop stop-color="#F9F9F9"/>
<stop offset="1" stop-color="white"/>
</linearGradient>
<clipPath id="clip0_78_134">
<rect width="77.3953" height="78" fill="white" transform="translate(0.5 0.5)"/>
</clipPath>
</defs>
</svg>
